<!DOCTYPE svg PUBLIC "-//W3C//DTD SVG 20010904//EN" "http://www.w3.org/TR/2001/REC-SVG-20010904/DTD/svg10.dtd">
<svg version="1.0" xmlns="http://www.w3.org/2000/svg" width="301px" height="332px" viewBox="0 0 3010 3320" preserveAspectRatio="xMidYMid meet">
<g id="layer101" fill="#000000" stroke="none">
 <path d="M1343 3013 c-31 -3 -43 -9 -43 -20 0 -12 7 -14 34 -10 l34 5 7 -72 c10 -104 7 -111 -39 -111 -37 0 -39 2 -52 44 -7 25 -16 68 -20 97 -4 38 -11 53 -24 57 -15 4 -19 -6 -28 -62 -6 -36 -16 -91 -23 -121 l-13 -54 -17 94 c-14 68 -15 97 -7 107 8 10 2 13 -30 13 -23 0 -43 -4 -46 -8 -7 -12 9 -33 24 -30 9 2 19 -25 33 -86 16 -74 17 -90 6 -97 -27 -17 -35 -8 -62 66 -16 41 -35 82 -43 90 -34 33 -114 6 -114 -39 0 -13 14 -56 30 -96 17 -40 29 -74 28 -74 -2 -1 -14 -7 -26 -14 -13 -7 -25 -12 -27 -10 -1 2 -13 23 -25 48 -41 83 -67 110 -106 110 -44 0 -74 -29 -74 -73 0 -37 15 -57 42 -57 11 0 18 7 18 20 0 11 -6 20 -14 20 -21 0 -26 25 -10 49 31 44 58 26 113 -72 l32 -58 -23 -19 c-35 -29 -5 -25 84 13 42 17 78 38 78 45 0 9 -7 11 -19 7 -16 -5 -21 2 -31 32 -6 21 -18 52 -26 70 -21 46 -18 72 11 85 18 8 28 8 39 -1 20 -16 67 -159 55 -166 -5 -4 -9 -12 -9 -19 0 -10 18 -7 69 12 l68 26 17 76 c9 41 16 84 16 95 0 16 2 17 9 5 6 -8 8 -17 6 -20 -2 -3 3 -31 10 -62 11 -50 11 -57 -3 -63 -32 -12 3 -24 43 -15 22 5 63 10 90 10 60 0 95 9 95 22 0 6 -14 8 -34 5 l-35 -6 -6 57 c-15 147 -17 132 21 132 24 0 34 5 34 15 0 15 -19 17 -117 8z"/>
 <path d="M1496 2990 c-66 -79 -33 -210 53 -210 46 0 75 28 91 89 14 53 8 80 -26 120 -36 43 -82 43 -118 1z m103 -26 c52 -66 -3 -190 -68 -154 -45 24 -55 102 -20 151 26 37 61 38 88 3z"/>
 <path d="M1837 2963 c-3 -5 -8 -22 -11 -39 -6 -28 -1 -38 44 -87 51 -56 63 -90 34 -101 -33 -13 -64 -6 -80 19 -19 30 -34 32 -34 6 0 -27 46 -61 82 -61 17 0 39 10 53 25 l25 24 0 -29 c0 -15 3 -36 6 -45 9 -23 61 -47 87 -39 29 8 75 52 94 87 30 59 -11 147 -70 147 -31 0 -83 -37 -101 -73 -8 -17 -16 -25 -16 -16 0 9 -20 34 -45 57 -30 28 -45 49 -45 66 l0 25 69 -24 c38 -13 72 -21 75 -18 9 9 -6 33 -20 33 -8 0 -41 11 -74 25 -66 28 -67 28 -73 18z m269 -148 c41 -62 -24 -168 -92 -151 -57 15 -50 120 9 156 43 26 63 25 83 -5z"/>
 <path d="M2190 2791 c0 -13 11 -26 30 -36 l30 -16 -33 -47 c-18 -26 -43 -62 -57 -79 l-24 -33 -22 21 c-21 20 -54 21 -54 2 0 -8 73 -63 83 -63 2 0 31 35 62 78 32 42 61 81 66 86 4 5 21 -1 37 -13 36 -26 42 -26 42 -3 0 9 -29 38 -65 65 -81 60 -95 65 -95 38z"/>
 <path d="M2315 2625 c-16 -15 -25 -36 -25 -55 0 -25 -4 -30 -23 -30 -29 0 -57 -29 -57 -58 0 -29 34 -62 64 -62 28 0 70 46 62 67 -4 9 5 13 29 13 24 0 39 7 54 26 36 46 22 93 -33 114 -38 14 -44 13 -71 -15z m77 -22 c23 -21 23 -45 -2 -68 -45 -40 -105 20 -65 65 22 24 43 25 67 3z m-87 -94 c4 -5 4 -21 1 -35 -5 -19 -12 -24 -28 -22 -30 4 -45 32 -29 52 15 18 47 21 56 5z"/>
 <path d="M488 2604 c-10 -3 -18 -12 -18 -20 0 -17 7 -17 48 -3 22 7 42 7 74 -2 l43 -12 -33 -14 c-29 -12 -52 -45 -52 -74 0 -19 49 -59 73 -59 34 0 77 37 77 65 0 65 -61 117 -143 121 -29 2 -60 0 -69 -2z m179 -90 c12 -18 11 -24 -7 -47 -18 -23 -24 -25 -45 -15 -30 14 -40 40 -25 68 14 27 57 23 77 -6z"/>
 <path d="M1493 2068 c-30 -65 -132 -159 -285 -261 -154 -103 -192 -161 -191 -297 0 -113 26 -181 92 -243 115 -108 270 -82 364 60 l35 53 26 -45 c47 -79 127 -126 218 -126 150 -1 248 120 248 305 0 126 -48 194 -215 306 -112 74 -174 129 -225 197 -24 32 -47 61 -50 66 -4 4 -11 -3 -17 -15z"/>
 <path d="M151 1754 c-26 -33 -26 -55 -4 -82 27 -32 64 -37 96 -12 34 27 35 63 2 95 -32 33 -68 32 -94 -1z"/>
 <path d="M2721 1754 c-26 -33 -26 -55 -3 -82 26 -32 63 -37 95 -12 34 27 35 63 2 95 -32 33 -68 32 -94 -1z"/>
 <path d="M2672 1288 c-16 -16 -15 -58 1 -58 7 0 4 -7 -7 -15 -28 -21 -56 -67 -56 -92 0 -32 28 -55 64 -51 26 3 35 11 59 56 29 54 33 57 55 44 18 -12 -4 -69 -29 -75 -15 -4 -20 -12 -17 -28 2 -12 8 -24 13 -26 33 -11 89 103 68 137 -6 8 -38 26 -72 40 -59 23 -62 26 -57 52 6 30 -2 36 -22 16z m52 -97 c6 -9 -29 -86 -42 -95 -5 -3 -18 2 -30 10 -18 12 -19 19 -11 37 6 13 23 31 37 40 31 19 39 20 46 8z"/>
 <path d="M292 1233 c2 -13 -22 -36 -82 -79 -93 -67 -115 -104 -63 -104 15 0 66 7 112 17 65 12 88 14 102 5 26 -16 28 -15 22 11 -10 41 -43 65 -43 32 0 -27 -37 -16 -50 15 -16 38 -7 64 20 55 23 -7 25 3 8 40 -13 28 -31 34 -26 8z m-23 -109 c6 -15 10 -28 9 -29 -2 -2 -30 -6 -63 -10 l-60 -8 45 36 c25 19 48 36 51 36 3 1 11 -11 18 -25z"/>
 <path d="M2543 1025 c-18 -29 -37 -64 -42 -78 -9 -24 -8 -27 9 -27 11 0 25 11 32 23 l13 24 53 -33 54 -32 -21 -21 c-26 -26 -27 -41 -2 -41 17 0 61 57 61 80 0 5 -27 24 -60 42 -62 34 -70 47 -45 68 20 17 19 37 -3 42 -12 4 -26 -9 -49 -47z"/>
 <path d="M375 1040 c-3 -6 -4 -18 -1 -28 4 -12 -8 -26 -44 -49 -57 -38 -60 -39 -60 -18 0 8 -7 15 -15 15 -19 0 -19 -29 0 -54 8 -11 20 -16 30 -12 12 4 15 1 14 -12 -6 -36 11 -70 37 -76 21 -6 39 1 81 30 41 28 57 34 65 26 16 -16 38 -15 38 1 0 19 -49 82 -63 82 -7 0 -11 -10 -10 -22 2 -16 -9 -30 -41 -53 -54 -36 -74 -38 -82 -6 -7 30 8 59 46 86 24 17 33 19 51 10 11 -7 23 -9 26 -7 8 8 -6 43 -28 71 -22 28 -34 32 -44 16z"/>
 <path d="M2444 875 c-20 -26 -24 -39 -16 -47 8 -8 15 -8 25 0 10 9 24 1 63 -34 47 -44 48 -46 30 -60 -30 -21 -71 -17 -105 12 -24 20 -30 31 -25 50 4 16 2 24 -7 24 -19 0 -69 -51 -69 -71 0 -25 22 -36 34 -16 9 13 16 10 58 -25 40 -33 46 -43 37 -55 -9 -10 -9 -17 -1 -25 18 -18 55 20 47 49 -4 19 -1 23 18 23 29 0 57 29 57 57 0 13 -20 39 -52 66 -43 37 -50 48 -40 59 6 8 9 18 5 21 -14 15 -33 5 -59 -28z"/>
 <path d="M2722 893 c-7 -12 -7 -25 -1 -36 14 -25 51 -4 47 26 -4 28 -34 34 -46 10z"/>
 <path d="M488 748 c-35 -43 -35 -43 -57 -24 -16 15 -24 17 -33 8 -9 -9 -7 -17 7 -32 19 -20 18 -21 -8 -46 -15 -14 -27 -29 -27 -34 0 -20 33 -9 53 16 l20 26 29 -31 c16 -17 33 -31 39 -31 16 0 10 29 -11 50 -26 26 -26 29 16 73 45 48 69 46 70 -6 1 -41 7 -52 23 -42 18 11 13 80 -7 98 -34 31 -74 22 -114 -25z"/>
 <path d="M633 670 c-42 -25 -58 -79 -38 -126 16 -38 41 -54 88 -54 27 0 42 8 66 35 35 40 39 73 14 115 -30 51 -78 62 -130 30z m89 -37 c22 -20 23 -51 2 -81 -18 -26 -50 -28 -82 -6 -29 20 -28 42 5 76 31 32 49 35 75 11z"/>
 <path d="M2260 683 c-28 -10 -50 -48 -50 -86 0 -83 103 -128 167 -73 61 53 16 167 -66 165 -20 0 -43 -3 -51 -6z m78 -43 c27 -26 28 -64 2 -90 -27 -27 -45 -25 -69 9 -25 35 -26 58 -4 83 21 24 44 23 71 -2z"/>
 <path d="M826 574 c-4 -10 0 -22 10 -28 15 -11 14 -17 -9 -63 -19 -36 -31 -49 -46 -49 -30 1 -28 -17 3 -34 23 -13 28 -13 36 0 7 11 11 9 19 -13 10 -27 43 -42 77 -35 10 2 31 30 48 65 24 48 34 60 46 53 8 -5 18 -6 22 -4 4 3 8 -2 8 -10 0 -9 11 -16 28 -18 30 -3 31 -16 11 -91 l-10 -37 -29 15 c-37 19 -40 19 -40 -5 0 -14 11 -22 38 -29 20 -6 43 -11 50 -11 14 0 30 37 41 95 6 32 11 39 27 37 45 -7 57 -6 61 6 5 14 -37 33 -117 53 -30 7 -66 21 -80 31 -37 26 -80 34 -80 15 0 -8 5 -17 12 -19 15 -5 -21 -87 -47 -108 -15 -13 -20 -12 -36 9 -23 29 -24 50 -2 95 14 29 20 35 40 30 38 -10 28 20 -16 44 -46 26 -57 27 -65 6z"/>
 <path d="M2061 554 c-12 -15 -21 -31 -21 -37 0 -5 -6 -4 -15 3 -8 6 -19 9 -24 5 -10 -6 37 -84 52 -85 4 0 7 18 7 40 0 65 57 102 93 62 24 -26 22 -33 -23 -77 -49 -48 -53 -83 -13 -115 32 -25 68 -20 98 14 12 12 26 21 33 18 19 -6 14 16 -10 48 -25 35 -38 30 -38 -14 0 -35 -15 -56 -40 -56 -16 0 -50 29 -50 43 0 3 21 27 46 52 40 39 45 49 39 72 -10 43 -24 53 -70 53 -35 0 -48 -5 -64 -26z"/>
 <path d="M1653 512 c-30 -5 -45 -26 -41 -59 4 -37 43 -41 43 -4 1 37 19 35 41 -5 19 -32 20 -40 8 -77 -7 -23 -15 -54 -18 -69 -5 -19 -13 -28 -26 -28 -14 0 -20 -7 -20 -21 0 -21 16 -21 83 -3 20 6 23 31 4 36 -10 2 -11 13 -4 47 l9 43 25 -38 c17 -24 22 -39 15 -42 -7 -2 -12 -12 -12 -22 0 -15 5 -16 47 -9 54 10 58 13 49 34 -4 11 -12 14 -26 10 -15 -5 -22 0 -29 18 -5 13 -23 46 -39 73 -17 27 -33 61 -37 75 -7 29 -38 47 -72 41z"/>
 <path d="M1264 418 c-34 -16 -55 -71 -43 -110 43 -132 214 -83 184 53 -12 53 -87 84 -141 57z m98 -54 c25 -54 -26 -109 -79 -85 -32 14 -31 64 1 96 28 28 62 24 78 -11z"/>
 <path d="M1032 228 c3 -24 42 -38 59 -21 18 18 -2 43 -33 43 -25 0 -29 -4 -26 -22z"/>
 </g>

</svg>