<!DOCTYPE svg PUBLIC "-//W3C//DTD SVG 20010904//EN" "http://www.w3.org/TR/2001/REC-SVG-20010904/DTD/svg10.dtd">
<svg version="1.0" xmlns="http://www.w3.org/2000/svg" width="303px" height="303px" viewBox="0 0 3030 3030" preserveAspectRatio="xMidYMid meet">
<g id="layer101" fill="#464747" stroke="none">
 <path d="M1478 2583 c-57 -6 -51 -33 7 -33 38 0 45 3 45 20 0 11 -3 19 -7 18 -5 -1 -25 -3 -45 -5z"/>
 <path d="M1077 2574 c-3 -3 -3 -12 0 -20 7 -19 93 -19 93 0 0 8 -7 17 -16 20 -20 8 -69 8 -77 0z"/>
 <path d="M1184 2566 c-8 -21 -7 -22 44 -30 38 -6 42 -4 42 14 0 12 -7 20 -17 20 -10 0 -28 3 -40 6 -16 4 -25 1 -29 -10z"/>
 <path d="M1392 2568 c-7 -7 -31 -13 -54 -14 -62 -3 -61 -3 -55 -19 4 -8 -5 -22 -20 -33 -15 -11 -23 -24 -19 -30 11 -19 31 -14 56 13 17 18 30 23 47 19 16 -4 23 -2 23 9 0 8 11 18 25 21 14 4 25 13 25 21 0 20 -15 26 -28 13z"/>
 <path d="M1540 2566 c0 -14 29 -26 68 -26 15 0 22 6 22 18 0 15 -9 19 -45 20 -33 2 -45 -2 -45 -12z"/>
 <path d="M1650 2552 c0 -16 8 -23 34 -28 19 -3 40 -3 46 1 14 9 8 28 -11 31 -7 1 -26 5 -41 9 -24 6 -28 4 -28 -13z"/>
 <path d="M973 2545 c-8 -23 0 -26 46 -19 55 9 56 34 1 34 -27 0 -43 -5 -47 -15z"/>
 <path d="M903 2525 c-18 -8 -33 -21 -33 -30 0 -18 2 -18 51 -3 27 8 39 17 39 30 0 21 -13 22 -57 3z"/>
 <path d="M1750 2528 c0 -22 69 -52 86 -37 11 9 14 8 14 -3 0 -17 64 -53 79 -44 24 15 9 28 -89 69 -60 26 -90 31 -90 15z"/>
 <path d="M1380 2497 c0 -13 51 -57 67 -57 4 -1 17 -20 28 -42 11 -23 26 -43 33 -46 22 -7 24 27 3 49 -12 13 -21 26 -21 31 0 4 -7 8 -15 8 -8 0 -15 6 -15 14 0 17 -46 56 -66 56 -8 0 -14 -6 -14 -13z"/>
 <path d="M808 2474 c-30 -16 -38 -44 -13 -44 23 0 65 30 65 46 0 18 -18 17 -52 -2z"/>
 <path d="M1192 2424 c-12 -19 -20 -39 -17 -44 4 -6 2 -10 -3 -10 -10 0 -32 -53 -32 -76 0 -8 6 -14 14 -14 9 0 21 21 30 53 9 30 27 66 41 81 29 32 32 46 8 46 -10 0 -28 -16 -41 -36z"/>
 <path d="M1940 2435 c0 -8 6 -15 13 -15 8 0 22 -9 32 -20 21 -23 45 -26 45 -7 0 16 -53 57 -75 57 -8 0 -15 -7 -15 -15z"/>
 <path d="M723 2408 c-36 -25 -43 -48 -15 -48 21 0 76 53 65 63 -10 11 -16 9 -50 -15z"/>
 <path d="M2034 2379 c-6 -11 42 -69 58 -69 17 0 7 37 -15 58 -26 25 -33 27 -43 11z"/>
 <path d="M651 2324 c-24 -40 -26 -54 -8 -54 16 0 60 68 52 80 -11 18 -23 11 -44 -26z"/>
 <path d="M1515 2344 c-6 -2 -9 -25 -7 -50 3 -35 8 -44 21 -42 9 2 16 9 15 16 -1 6 -2 28 -2 47 -2 34 -6 38 -27 29z"/>
 <path d="M2085 2301 c-17 -3 -31 -14 -33 -24 -3 -14 4 -17 36 -17 32 0 41 -4 45 -21 7 -26 32 -19 31 8 0 18 4 20 36 16 27 -4 39 -1 43 10 4 11 -4 17 -29 22 -19 3 -44 3 -54 0 -12 -4 -20 -2 -20 4 0 12 -9 12 -55 2z"/>
 <path d="M1963 2270 c-20 -8 -33 -40 -17 -40 25 0 84 26 84 37 0 15 -34 16 -67 3z"/>
 <path d="M2255 2269 c-8 -11 -1 -21 18 -26 64 -15 67 -15 67 -1 0 27 -72 49 -85 27z"/>
 <path d="M607 2263 c-4 -3 -7 -19 -7 -35 0 -36 25 -38 34 -3 9 36 -7 58 -27 38z"/>
 <path d="M1150 2239 c0 -41 51 -104 113 -138 45 -25 117 -29 117 -6 0 14 -27 20 -71 16 -9 -1 -33 14 -54 33 -21 20 -41 33 -45 31 -3 -2 -12 16 -18 41 -12 46 -42 62 -42 23z"/>
 <path d="M1883 2230 c-31 -14 -41 -23 -37 -34 4 -11 0 -16 -13 -16 -21 0 -63 -39 -63 -58 0 -22 28 -12 57 21 16 17 45 41 66 52 21 11 37 27 37 37 0 22 4 22 -47 -2z"/>
 <path d="M1492 2208 c-11 -17 -18 -37 -15 -45 9 -23 31 -14 42 18 22 64 6 80 -27 27z"/>
 <path d="M2350 2233 c0 -11 20 -40 20 -29 0 4 11 1 25 -8 30 -20 45 -20 45 -1 0 8 -13 21 -30 30 -31 16 -60 20 -60 8z"/>
 <path d="M2166 2212 c-9 -16 15 -82 29 -82 17 0 19 27 5 64 -10 26 -24 33 -34 18z"/>
 <path d="M2450 2172 c0 -12 15 -26 37 -38 34 -17 53 -35 90 -83 9 -12 15 -13 23 -4 16 15 -26 73 -52 73 -10 0 -18 6 -18 13 0 14 -52 57 -70 57 -5 0 -10 -8 -10 -18z"/>
 <path d="M1430 2135 c-7 -8 -19 -15 -26 -15 -8 0 -14 -9 -14 -20 0 -11 7 -20 15 -20 8 0 15 3 15 8 0 4 14 13 30 20 17 8 30 20 30 28 0 19 -34 18 -50 -1z"/>
 <path d="M2193 2099 c4 -13 7 -34 7 -46 0 -14 6 -23 16 -23 24 0 15 84 -10 88 -15 3 -18 0 -13 -19z"/>
 <path d="M1741 2059 c-18 -59 1 -74 26 -22 20 41 20 63 -1 63 -7 0 -18 -19 -25 -41z"/>
 <path d="M2606 2041 c-8 -12 36 -80 52 -81 20 0 13 33 -13 63 -26 29 -31 32 -39 18z"/>
 <path d="M954 2016 c-10 -26 1 -61 19 -64 14 -3 17 2 15 24 -2 15 2 29 8 31 13 4 39 -52 58 -123 l13 -50 -29 4 c-15 2 -35 -1 -43 -8 -24 -20 -19 -115 10 -200 31 -91 31 -102 3 -98 -45 6 -103 131 -80 169 18 28 15 51 -5 47 -31 -6 -30 -99 2 -163 30 -62 63 -87 108 -83 45 4 46 37 8 149 -34 97 -37 120 -20 151 11 20 11 20 35 -2 13 -13 33 -51 44 -86 16 -48 26 -64 40 -64 18 0 18 3 5 43 -8 23 -28 94 -45 158 -41 150 -58 179 -105 179 -22 0 -38 -6 -41 -14z"/>
 <path d="M2202 1965 c-2 -34 1 -45 11 -45 15 0 27 29 27 68 0 14 -6 22 -17 22 -14 0 -19 -10 -21 -45z"/>
 <path d="M1720 1944 c0 -38 3 -45 18 -42 12 2 18 15 20 46 3 37 1 42 -17 42 -18 0 -21 -6 -21 -46z"/>
 <path d="M2660 1943 c0 -15 35 -83 42 -83 18 0 19 30 2 59 -16 27 -44 43 -44 24z"/>
 <path d="M2175 1865 c-11 -25 -24 -45 -30 -45 -15 0 -55 -43 -55 -58 0 -7 6 -12 13 -12 22 0 57 31 57 51 0 10 6 19 13 19 15 0 47 51 47 74 0 31 -25 15 -45 -29z"/>
 <path d="M625 1879 c-27 -29 -32 -150 -11 -243 9 -38 13 -73 9 -76 -5 -4 -22 -12 -39 -18 l-31 -10 -39 81 c-53 111 -89 147 -143 147 -31 0 -48 -6 -66 -25 -54 -53 -20 -184 56 -215 43 -18 49 -3 12 28 -17 15 -36 37 -42 49 -26 52 -1 123 44 123 33 0 60 -31 106 -122 l39 -78 -29 0 c-16 0 -36 7 -45 15 -34 35 -50 0 -20 -44 14 -19 23 -22 65 -19 l48 3 42 -95 c67 -152 104 -200 156 -200 64 0 66 62 8 234 -19 56 -35 105 -35 109 0 5 10 7 23 5 14 -2 23 -11 25 -26 5 -34 22 -16 22 24 0 27 -5 36 -24 44 -13 5 -33 6 -44 3 -17 -4 -23 2 -33 39 -7 23 -13 80 -13 125 -1 72 2 85 21 104 l21 22 16 -32 c20 -37 51 -44 41 -8 -14 47 -40 72 -82 75 -30 2 -44 -2 -58 -19z m62 -456 c42 -116 57 -183 44 -196 -19 -19 -48 21 -100 139 -28 63 -51 116 -51 119 0 7 41 24 60 24 11 1 26 -27 47 -86z"/>
 <path d="M1342 1880 c-42 -26 -62 -73 -62 -147 0 -100 68 -193 142 -193 25 0 29 4 26 23 -2 17 -10 22 -32 23 -38 1 -72 43 -85 105 -31 145 100 238 175 124 31 -48 36 -102 18 -215 -24 -156 -22 -150 -45 -150 -31 0 -69 -44 -69 -80 0 -46 59 -98 83 -74 3 4 -3 19 -15 34 -23 31 -20 53 11 69 17 10 21 5 37 -46 38 -120 117 -193 179 -165 66 30 -10 203 -106 243 -16 6 -29 17 -29 23 0 6 9 58 21 116 28 144 13 226 -53 287 -50 47 -139 57 -196 23z m311 -552 c39 -49 49 -72 41 -93 -10 -24 -31 -17 -57 18 -23 31 -57 107 -57 128 0 18 37 -9 73 -53z"/>
 <path d="M1730 1885 c0 -20 35 -85 44 -82 14 5 11 54 -5 73 -11 13 -39 20 -39 9z"/>
 <path d="M2712 1851 c-12 -7 -11 -32 3 -78 5 -16 35 -5 35 12 0 29 -26 74 -38 66z"/>
 <path d="M1780 1788 c0 -13 62 -58 80 -58 20 0 9 27 -20 48 -32 24 -60 29 -60 10z"/>
 <path d="M2023 1749 c-32 -9 -47 -39 -19 -39 43 0 76 14 76 31 0 21 -9 22 -57 8z"/>
 <path d="M1880 1737 c0 -20 6 -23 53 -32 30 -6 37 -4 37 8 0 20 -6 23 -53 32 -30 6 -37 4 -37 -8z"/>
 <path d="M2726 1742 c-3 -5 -3 -25 1 -45 6 -40 33 -52 33 -14 0 50 -19 83 -34 59z"/>
 <path d="M2732 1642 c-9 -6 -11 -21 -6 -50 12 -73 45 -44 35 31 -3 29 -8 32 -29 19z"/>
 <path d="M2730 1530 c-20 -12 -25 -90 -5 -90 17 0 28 36 23 74 -2 19 -6 23 -18 16z"/>
 <path d="M2691 1393 c-14 -51 -14 -53 8 -53 19 0 31 25 31 68 0 36 -28 26 -39 -15z"/>
 <path d="M2661 1313 c-15 -29 -17 -66 -3 -70 11 -4 42 52 42 77 0 17 -29 11 -39 -7z"/>
 <path d="M2607 1199 c-9 -17 -15 -35 -11 -40 11 -18 30 -8 44 24 7 17 15 35 18 40 2 4 -5 7 -15 7 -10 0 -26 -14 -36 -31z"/>
 <path d="M2552 1110 c-23 -30 -28 -50 -14 -50 12 0 62 54 62 68 0 22 -26 12 -48 -18z"/>
 <path d="M2342 1098 c-20 -20 -14 -41 29 -84 l40 -41 -49 -47 c-88 -84 -79 -83 -163 -20 -41 30 -96 72 -122 93 -45 35 -51 37 -94 31 -27 -4 -52 -15 -60 -26 -26 -35 -15 -62 54 -131 36 -38 89 -92 116 -121 l51 -53 -27 -26 -26 -27 -18 23 c-12 15 -27 22 -42 19 l-23 -3 21 -24 c12 -13 21 -30 21 -38 0 -7 7 -13 15 -13 15 0 19 -10 15 -44 -1 -15 3 -18 21 -13 17 5 30 -2 54 -29 29 -32 55 -44 55 -26 0 4 -6 14 -12 20 -10 10 -10 15 1 22 11 6 12 12 4 22 -8 10 -7 19 7 36 10 12 21 22 24 22 8 0 124 -97 188 -157 49 -46 62 -53 97 -53 35 0 43 4 56 30 16 30 21 90 8 90 -5 0 -19 17 -33 37 -14 20 -41 53 -60 73 -19 21 -57 60 -84 88 l-50 52 20 22 c11 13 35 46 54 75 l34 52 47 -35 c49 -36 77 -42 97 -22 21 21 13 43 -33 88 -30 30 -43 50 -40 61 7 21 -23 40 -51 33 -11 -3 -39 8 -67 26 -54 34 -58 35 -75 18z"/>
 </g>

</svg>